<?xml version="1.0" standalone="no"?>
<!DOCTYPE svg PUBLIC "-//W3C//DTD SVG 20010904//EN"
 "http://www.w3.org/TR/2001/REC-SVG-20010904/DTD/svg10.dtd">
<svg version="1.0" xmlns="http://www.w3.org/2000/svg"
 width="1100.000000pt" height="1100.000000pt" viewBox="0 0 1100.000000 1100.000000"
 preserveAspectRatio="xMidYMid meet">
<metadata>
Created by potrace 1.14, written by Peter Selinger 2001-2017
</metadata>
<g transform="translate(0.000000,1100.000000) scale(0.100000,-0.100000)"
fill="#000000" stroke="none">
<path d="M2790 10556 c-182 -33 -284 -79 -379 -175 -74 -74 -117 -143 -152
-246 -34 -101 -34 -280 0 -380 42 -125 90 -204 176 -291 158 -159 317 -204
407 -114 22 23 28 37 28 73 0 64 -39 112 -129 162 -161 88 -242 242 -219 418
9 69 55 156 101 191 169 126 433 110 593 -37 117 -107 151 -243 121 -490 -9
-78 -28 -205 -42 -282 -50 -273 -59 -375 -59 -650 0 -268 10 -399 45 -590 62
-338 201 -702 365 -958 24 -37 44 -71 44 -76 0 -4 -10 -12 -22 -18 -44 -20
-127 -93 -170 -150 -86 -112 -139 -241 -159 -389 -7 -46 -15 -84 -18 -84 -8 1
-51 93 -124 265 -56 134 -74 175 -133 318 -14 34 -34 87 -44 117 -10 30 -32
91 -50 135 -17 44 -48 125 -68 179 -46 124 -74 156 -134 156 -49 0 -78 -22
-97 -73 -33 -86 -85 -1149 -64 -1288 7 -40 11 -75 9 -76 -3 -4 -191 376 -241
487 -105 237 -136 314 -180 445 -38 115 -52 146 -80 173 -63 59 -132 33 -160
-61 -9 -29 -20 -122 -25 -207 -6 -85 -14 -177 -19 -205 -11 -54 -18 -165 -26
-400 -5 -145 -8 -193 -21 -430 -11 -201 21 -301 103 -322 93 -23 150 30 184
171 40 169 43 321 13 674 -5 59 -4 82 5 82 6 0 11 -5 11 -11 0 -18 339 -691
419 -831 131 -232 242 -358 349 -398 181 -68 324 54 422 361 17 51 30 98 30
106 0 28 19 11 44 -41 67 -137 223 -332 343 -430 38 -30 89 -79 116 -110 81
-94 251 -210 472 -323 52 -26 95 -50 95 -53 0 -3 -28 -39 -61 -80 -280 -349
-496 -848 -590 -1365 -35 -193 -38 -217 -54 -395 -48 -555 11 -1239 166 -1927
13 -60 17 -102 12 -165 -11 -164 45 -321 130 -361 81 -39 123 -6 168 132 l32
98 50 -1 c43 -1 52 3 70 26 19 25 19 31 7 67 -7 22 -26 56 -42 75 -30 37 -137
96 -173 96 -26 0 -32 17 -74 220 -85 413 -118 666 -141 1105 -29 536 40 1059
200 1510 115 323 288 623 482 838 l43 48 51 -16 52 -15 7 -103 c6 -90 33 -244
50 -290 6 -14 0 -15 -47 -10 -61 6 -97 -7 -139 -54 -64 -69 -76 -206 -30 -326
45 -114 172 -221 312 -261 30 -8 64 -25 75 -37 38 -43 259 -201 366 -263 117
-66 357 -144 578 -187 121 -23 299 -30 539 -19 l114 5 10 -30 c17 -54 85 -193
133 -272 124 -206 304 -426 480 -589 401 -372 851 -642 1379 -827 214 -75 253
-85 550 -143 172 -34 421 -44 511 -20 78 20 198 20 304 0 76 -14 84 -14 118 3
30 15 38 24 40 51 2 18 -4 44 -12 57 -15 22 -14 24 42 67 72 55 73 55 70 103
-4 51 -34 68 -134 73 -125 7 -227 -27 -361 -121 -39 -27 -45 -28 -164 -27
-281 1 -436 24 -761 115 -84 23 -285 99 -423 161 -593 263 -1104 674 -1408
1134 -76 116 -162 283 -154 303 3 6 36 23 73 36 84 28 192 98 233 150 61 77
101 187 101 278 0 32 2 35 23 29 88 -26 136 -15 201 49 96 93 146 245 146 444
0 190 -36 301 -109 331 -52 21 -95 6 -143 -52 -24 -28 -54 -64 -68 -80 l-25
-29 -1 128 c-2 424 -219 791 -594 1005 -78 45 -175 78 -292 101 l-113 22 4 44
c8 104 81 194 166 207 102 15 256 -33 339 -106 39 -35 81 -113 72 -135 -19
-51 -228 32 -310 124 -27 30 -36 26 -23 -10 19 -51 84 -116 145 -146 45 -22
71 -28 125 -28 61 0 71 3 89 25 54 67 -45 217 -188 281 -82 37 -142 50 -234
50 -90 1 -116 -8 -170 -57 -56 -51 -89 -111 -98 -177 l-7 -56 -160 -5 c-178
-4 -359 -35 -474 -81 -36 -14 -66 -25 -67 -25 -1 0 -4 55 -7 123 -15 371 -203
762 -517 1077 -142 143 -258 227 -413 300 -161 75 -267 102 -429 108 l-136 5
-67 101 c-87 132 -193 349 -250 509 -104 295 -147 562 -149 912 -1 232 11 365
59 635 53 299 57 344 52 487 -8 252 -88 432 -245 558 -156 124 -409 193 -592
161z m150 -3766 c33 -80 75 -179 93 -220 71 -168 168 -340 226 -403 23 -26 24
-30 12 -60 -7 -17 -44 -122 -81 -233 -82 -245 -122 -314 -169 -299 -55 17
-176 183 -296 408 -56 106 -64 138 -26 103 29 -27 97 -32 136 -12 60 33 70 65
67 211 -1 72 -11 233 -22 359 -22 252 -25 330 -11 306 5 -8 37 -80 71 -160z
m3130 -1674 c78 -28 115 -50 177 -109 l41 -40 32 36 c20 23 54 45 100 63 61
24 77 26 162 22 125 -7 193 -34 269 -108 138 -136 202 -405 153 -649 l-16 -78
35 -46 c19 -25 49 -80 68 -123 32 -76 34 -84 34 -204 0 -124 0 -125 -37 -202
-49 -98 -118 -173 -228 -247 -169 -113 -312 -151 -571 -151 -263 0 -386 29
-634 150 -144 70 -219 120 -302 200 -88 86 -118 152 -118 255 0 68 4 88 28
135 38 73 100 135 165 166 l53 25 -21 32 c-59 89 -82 154 -87 255 -9 161 25
294 107 420 100 155 224 220 423 221 79 1 111 -4 167 -23z m1373 -726 c37 -44
52 -122 39 -200 -15 -80 -42 -137 -95 -193 -96 -103 -157 -57 -157 120 0 111
56 238 126 284 40 26 58 24 87 -11z m-2570 -150 c15 -7 27 -18 27 -24 0 -12
59 -130 138 -277 45 -83 50 -98 38 -109 -39 -31 -151 22 -227 108 -64 73 -90
125 -96 189 -4 50 -2 62 17 86 13 16 32 32 44 37 24 9 21 9 59 -10z"/>
<path d="M6722 4284 c-40 -28 -16 -94 34 -94 29 0 44 20 44 57 0 27 -5 35 -26
43 -31 12 -25 13 -52 -6z"/>
<path d="M5880 4250 c-11 -11 -20 -29 -20 -39 0 -41 59 -68 88 -39 20 20 14
65 -10 82 -29 20 -34 20 -58 -4z"/>
<path d="M6335 4003 c-27 -7 -55 -33 -66 -61 -12 -32 15 -88 51 -104 35 -15
43 -54 29 -139 -17 -106 -94 -186 -185 -192 -38 -2 -40 0 -84 65 -39 60 -46
66 -59 53 -14 -14 -13 -20 9 -61 35 -64 92 -112 146 -120 48 -7 79 0 69 16 -3
5 -15 10 -26 10 -30 0 -22 18 11 25 41 9 113 84 128 133 7 21 12 72 12 112 l0
72 40 -7 c141 -24 181 112 52 179 -34 17 -97 27 -127 19z"/>
</g>
</svg>
